<svg width="32" height="28" viewBox="0 0 32 28" fill="none" xmlns="http://www.w3.org/2000/svg">
<g id="align-end-horizontal 1">
<path id="Vector" d="M10.6667 2.33337H8.00004C6.52728 2.33337 5.33337 3.37804 5.33337 4.66671V18.6667C5.33337 19.9554 6.52728 21 8.00004 21H10.6667C12.1395 21 13.3334 19.9554 13.3334 18.6667V4.66671C13.3334 3.37804 12.1395 2.33337 10.6667 2.33337Z" stroke="#3D3838" stroke-width="2" stroke-linecap="round" stroke-linejoin="round"/>
<path id="Vector_2" d="M24 10.5H21.3333C19.8605 10.5 18.6666 11.5447 18.6666 12.8333V18.6667C18.6666 19.9553 19.8605 21 21.3333 21H24C25.4727 21 26.6666 19.9553 26.6666 18.6667V12.8333C26.6666 11.5447 25.4727 10.5 24 10.5Z" stroke="#3D3838" stroke-width="2" stroke-linecap="round" stroke-linejoin="round"/>
<path id="Vector_3" d="M29.3333 25.6666H2.66663" stroke="#3D3838" stroke-width="2" stroke-linecap="round" stroke-linejoin="round"/>
</g>
</svg>
