<svg width="434" height="53" viewBox="0 0 434 53" fill="none" xmlns="http://www.w3.org/2000/svg">
<path d="M0.506836 41V0.999999H4.15918V19.3398H26.8545V0.999999H30.5068V41H26.8545V22.6211H4.15918V41H0.506836ZM48.7686 41.6836C46.9587 41.6836 45.305 41.332 43.8076 40.6289C42.3102 39.9128 41.1188 38.8841 40.2334 37.543C39.348 36.1888 38.9053 34.5482 38.9053 32.6211C38.9053 31.1367 39.1852 29.8867 39.7451 28.8711C40.305 27.8555 41.0993 27.0221 42.1279 26.3711C43.1566 25.7201 44.374 25.2057 45.7803 24.8281C47.1865 24.4505 48.736 24.1576 50.4287 23.9492C52.1084 23.7409 53.5277 23.5586 54.6865 23.4023C55.8584 23.2461 56.7503 22.9987 57.3623 22.6602C57.9743 22.3216 58.2803 21.7747 58.2803 21.0195V20.3164C58.2803 18.2721 57.6683 16.6641 56.4443 15.4922C55.2334 14.3073 53.4886 13.7148 51.21 13.7148C49.0485 13.7148 47.2842 14.1901 45.917 15.1406C44.5628 16.0911 43.6123 17.2109 43.0654 18.5L39.7646 17.3086C40.4417 15.668 41.3792 14.3594 42.5771 13.3828C43.7751 12.3932 45.1162 11.6836 46.6006 11.2539C48.085 10.8112 49.5889 10.5898 51.1123 10.5898C52.2581 10.5898 53.4495 10.7396 54.6865 11.0391C55.9365 11.3385 57.0954 11.8594 58.1631 12.6016C59.2308 13.3307 60.0967 14.3529 60.7607 15.668C61.4248 16.9701 61.7568 18.6237 61.7568 20.6289V41H58.2803V36.2539H58.0654C57.6488 37.1393 57.0303 37.9987 56.21 38.832C55.3896 39.6654 54.361 40.349 53.124 40.8828C51.887 41.4167 50.4352 41.6836 48.7686 41.6836ZM49.2373 38.5C51.0863 38.5 52.6878 38.0898 54.042 37.2695C55.3962 36.4492 56.4378 35.362 57.167 34.0078C57.9092 32.6406 58.2803 31.1367 58.2803 29.4961V25.1602C58.0199 25.4076 57.5837 25.6289 56.9717 25.8242C56.3727 26.0195 55.6761 26.1953 54.8818 26.3516C54.1006 26.4948 53.3193 26.6185 52.5381 26.7227C51.7568 26.8268 51.0537 26.918 50.4287 26.9961C48.736 27.2044 47.2907 27.5299 46.0928 27.9727C44.8949 28.4154 43.9769 29.0273 43.3389 29.8086C42.7008 30.5768 42.3818 31.5664 42.3818 32.7773C42.3818 34.6003 43.0329 36.013 44.335 37.0156C45.637 38.0052 47.2712 38.5 49.2373 38.5ZM93.1533 11L82.1963 41H78.4854L67.5283 11H71.2979L80.2041 36.4102H80.4775L89.3838 11H93.1533ZM111.01 41.625C108.21 41.625 105.788 40.974 103.744 39.6719C101.7 38.3568 100.118 36.5404 98.998 34.2227C97.8913 31.8919 97.3379 29.2096 97.3379 26.1758C97.3379 23.1549 97.8913 20.4727 98.998 18.1289C100.118 15.7721 101.661 13.9297 103.627 12.6016C105.606 11.2604 107.891 10.5898 110.482 10.5898C112.11 10.5898 113.679 10.8893 115.189 11.4883C116.7 12.0742 118.054 12.9792 119.252 14.2031C120.463 15.4141 121.42 16.944 122.123 18.793C122.826 20.6289 123.178 22.8034 123.178 25.3164V27.0352H99.7402V23.9687H119.623C119.623 22.0417 119.232 20.3099 118.451 18.7734C117.683 17.224 116.609 16 115.229 15.1016C113.861 14.2031 112.279 13.7539 110.482 13.7539C108.581 13.7539 106.908 14.2617 105.463 15.2773C104.018 16.293 102.885 17.6341 102.064 19.3008C101.257 20.9674 100.847 22.7904 100.834 24.7695V26.6055C100.834 28.9883 101.244 31.0716 102.064 32.8555C102.898 34.6263 104.076 36 105.6 36.9766C107.123 37.9531 108.926 38.4414 111.01 38.4414C112.429 38.4414 113.673 38.2201 114.74 37.7773C115.821 37.3346 116.726 36.7422 117.455 36C118.197 35.2448 118.757 34.418 119.135 33.5195L122.436 34.5937C121.98 35.8568 121.231 37.0221 120.189 38.0898C119.161 39.1576 117.872 40.0169 116.322 40.668C114.786 41.306 113.015 41.625 111.01 41.625ZM154.687 41.6836C152.877 41.6836 151.223 41.332 149.726 40.6289C148.228 39.9128 147.037 38.8841 146.151 37.543C145.266 36.1888 144.823 34.5482 144.823 32.6211C144.823 31.1367 145.103 29.8867 145.663 28.8711C146.223 27.8555 147.017 27.0221 148.046 26.3711C149.075 25.7201 150.292 25.2057 151.698 24.8281C153.104 24.4505 154.654 24.1576 156.347 23.9492C158.026 23.7409 159.446 23.5586 160.604 23.4023C161.776 23.2461 162.668 22.9987 163.28 22.6602C163.892 22.3216 164.198 21.7747 164.198 21.0195V20.3164C164.198 18.2721 163.586 16.6641 162.362 15.4922C161.151 14.3073 159.407 13.7148 157.128 13.7148C154.966 13.7148 153.202 14.1901 151.835 15.1406C150.481 16.0911 149.53 17.2109 148.983 18.5L145.683 17.3086C146.36 15.668 147.297 14.3594 148.495 13.3828C149.693 12.3932 151.034 11.6836 152.519 11.2539C154.003 10.8112 155.507 10.5898 157.03 10.5898C158.176 10.5898 159.368 10.7396 160.604 11.0391C161.854 11.3385 163.013 11.8594 164.081 12.6016C165.149 13.3307 166.015 14.3529 166.679 15.668C167.343 16.9701 167.675 18.6237 167.675 20.6289V41H164.198V36.2539H163.983C163.567 37.1393 162.948 37.9987 162.128 38.832C161.308 39.6654 160.279 40.349 159.042 40.8828C157.805 41.4167 156.353 41.6836 154.687 41.6836ZM155.155 38.5C157.004 38.5 158.606 38.0898 159.96 37.2695C161.314 36.4492 162.356 35.362 163.085 34.0078C163.827 32.6406 164.198 31.1367 164.198 29.4961V25.1602C163.938 25.4076 163.502 25.6289 162.89 25.8242C162.291 26.0195 161.594 26.1953 160.8 26.3516C160.019 26.4948 159.237 26.6185 158.456 26.7227C157.675 26.8268 156.972 26.918 156.347 26.9961C154.654 27.2044 153.209 27.5299 152.011 27.9727C150.813 28.4154 149.895 29.0273 149.257 29.8086C148.619 30.5768 148.3 31.5664 148.3 32.7773C148.3 34.6003 148.951 36.013 150.253 37.0156C151.555 38.0052 153.189 38.5 155.155 38.5ZM212.724 52.25V35.4336H212.411C212.007 36.3451 211.435 37.2826 210.692 38.2461C209.95 39.1966 208.967 39.9974 207.743 40.6484C206.519 41.2995 205.002 41.625 203.192 41.625C200.744 41.625 198.59 40.974 196.728 39.6719C194.879 38.3698 193.433 36.5534 192.392 34.2227C191.363 31.8919 190.849 29.1771 190.849 26.0781C190.849 22.9922 191.363 20.2904 192.392 17.9727C193.433 15.6419 194.885 13.832 196.747 12.543C198.609 11.2409 200.777 10.5898 203.251 10.5898C205.087 10.5898 206.604 10.9154 207.802 11.5664C209.013 12.2174 209.983 13.0182 210.712 13.9687C211.441 14.9062 212.007 15.8242 212.411 16.7227H212.821V11H216.22V52.25H212.724ZM203.603 38.4414C205.543 38.4414 207.196 37.9141 208.563 36.8594C209.931 35.7917 210.972 34.3268 211.688 32.4648C212.418 30.5898 212.782 28.4414 212.782 26.0195C212.782 23.6237 212.424 21.5078 211.708 19.6719C210.992 17.8229 209.95 16.3776 208.583 15.3359C207.229 14.2812 205.569 13.7539 203.603 13.7539C201.597 13.7539 199.905 14.3008 198.524 15.3945C197.144 16.4753 196.103 17.9401 195.399 19.7891C194.696 21.638 194.345 23.7148 194.345 26.0195C194.345 28.3503 194.703 30.4531 195.419 32.3281C196.135 34.2031 197.183 35.694 198.563 36.8008C199.944 37.8945 201.623 38.4414 203.603 38.4414ZM244.433 29.5352V11H247.909V41H244.433V36.0195H244.159C243.456 37.556 242.343 38.8385 240.819 39.8672C239.296 40.8828 237.434 41.3906 235.233 41.3906C233.319 41.3906 231.62 40.974 230.136 40.1406C228.651 39.2943 227.486 38.0573 226.64 36.4297C225.793 34.8021 225.37 32.8034 225.37 30.4336V11H228.847V30.2187C228.847 32.5625 229.537 34.4505 230.917 35.8828C232.297 37.3021 234.068 38.0117 236.229 38.0117C237.584 38.0117 238.886 37.6862 240.136 37.0352C241.386 36.3841 242.414 35.4336 243.222 34.1836C244.029 32.9206 244.433 31.3711 244.433 29.5352ZM269.242 41.625C266.443 41.625 264.021 40.974 261.977 39.6719C259.932 38.3568 258.35 36.5404 257.23 34.2227C256.124 31.8919 255.57 29.2096 255.57 26.1758C255.57 23.1549 256.124 20.4727 257.23 18.1289C258.35 15.7721 259.893 13.9297 261.859 12.6016C263.839 11.2604 266.124 10.5898 268.715 10.5898C270.342 10.5898 271.911 10.8893 273.422 11.4883C274.932 12.0742 276.286 12.9792 277.484 14.2031C278.695 15.4141 279.652 16.944 280.355 18.793C281.059 20.6289 281.41 22.8034 281.41 25.3164V27.0352H257.973V23.9687H277.855C277.855 22.0417 277.465 20.3099 276.684 18.7734C275.915 17.224 274.841 16 273.461 15.1016C272.094 14.2031 270.512 13.7539 268.715 13.7539C266.814 13.7539 265.141 14.2617 263.695 15.2773C262.25 16.293 261.117 17.6341 260.297 19.3008C259.49 20.9674 259.079 22.7904 259.066 24.7695V26.6055C259.066 28.9883 259.477 31.0716 260.297 32.8555C261.13 34.6263 262.309 36 263.832 36.9766C265.355 37.9531 267.159 38.4414 269.242 38.4414C270.661 38.4414 271.905 38.2201 272.973 37.7773C274.053 37.3346 274.958 36.7422 275.688 36C276.43 35.2448 276.99 34.418 277.367 33.5195L280.668 34.5937C280.212 35.8568 279.464 37.0221 278.422 38.0898C277.393 39.1576 276.104 40.0169 274.555 40.668C273.018 41.306 271.247 41.625 269.242 41.625ZM309.228 17.582L306.044 18.4805C305.731 17.582 305.289 16.7682 304.716 16.0391C304.143 15.3099 303.394 14.7305 302.47 14.3008C301.558 13.8711 300.425 13.6562 299.071 13.6562C297.04 13.6562 295.373 14.138 294.071 15.1016C292.769 16.0651 292.118 17.3086 292.118 18.832C292.118 20.1211 292.561 21.1693 293.446 21.9766C294.345 22.7708 295.725 23.4023 297.587 23.8711L302.118 24.9844C304.631 25.5964 306.513 26.5664 307.763 27.8945C309.026 29.2227 309.657 30.8893 309.657 32.8945C309.657 34.5872 309.188 36.0911 308.251 37.4062C307.313 38.7214 306.005 39.7565 304.325 40.5117C302.659 41.2539 300.725 41.625 298.524 41.625C295.595 41.625 293.179 40.9674 291.278 39.6523C289.377 38.3242 288.16 36.4102 287.626 33.9102L290.966 33.0898C291.396 34.8737 292.235 36.2214 293.485 37.1328C294.748 38.0443 296.409 38.5 298.466 38.5C300.771 38.5 302.613 37.9857 303.993 36.957C305.373 35.9154 306.063 34.6133 306.063 33.0508C306.063 31.8398 305.66 30.8242 304.853 30.0039C304.045 29.1706 302.821 28.5586 301.181 28.168L296.278 26.9961C293.674 26.3711 291.747 25.3815 290.497 24.0273C289.247 22.6732 288.622 20.9935 288.622 18.9883C288.622 17.3346 289.071 15.8828 289.97 14.6328C290.868 13.3698 292.105 12.3802 293.681 11.6641C295.256 10.9479 297.053 10.5898 299.071 10.5898C301.819 10.5898 304.013 11.2148 305.653 12.4648C307.307 13.7018 308.498 15.4076 309.228 17.582ZM329.086 11V14.0273H314.77V11H329.086ZM319.242 3.8125H322.738V33.168C322.738 34.418 322.953 35.401 323.383 36.1172C323.813 36.8203 324.372 37.3216 325.063 37.6211C325.753 37.9076 326.488 38.0508 327.27 38.0508C327.725 38.0508 328.116 38.0247 328.441 37.9727C328.767 37.9076 329.053 37.8424 329.301 37.7773L330.043 40.9219C329.704 41.0521 329.288 41.1693 328.793 41.2734C328.298 41.3906 327.686 41.4492 326.957 41.4492C325.681 41.4492 324.451 41.1693 323.266 40.6094C322.094 40.0495 321.13 39.2161 320.375 38.1094C319.62 37.0026 319.242 35.6289 319.242 33.9883V3.8125ZM337.021 41V11H340.517V41H337.021ZM338.798 5.84375C338.082 5.84375 337.47 5.60286 336.962 5.12109C336.454 4.6263 336.2 4.03385 336.2 3.34375C336.2 2.65364 336.454 2.06771 336.962 1.58594C337.47 1.09114 338.082 0.843747 338.798 0.843747C339.514 0.843747 340.126 1.09114 340.634 1.58594C341.142 2.06771 341.396 2.65364 341.396 3.34375C341.396 4.03385 341.142 4.6263 340.634 5.12109C340.126 5.60286 339.514 5.84375 338.798 5.84375ZM361.371 41.625C358.78 41.625 356.488 40.9674 354.496 39.6523C352.517 38.3372 350.967 36.5208 349.848 34.2031C348.728 31.8724 348.168 29.1836 348.168 26.1367C348.168 23.0638 348.728 20.362 349.848 18.0312C350.967 15.6875 352.517 13.8646 354.496 12.5625C356.488 11.2474 358.78 10.5898 361.371 10.5898C363.962 10.5898 366.247 11.2474 368.227 12.5625C370.206 13.8776 371.755 15.7005 372.875 18.0312C374.008 20.362 374.574 23.0638 374.574 26.1367C374.574 29.1836 374.014 31.8724 372.895 34.2031C371.775 36.5208 370.219 38.3372 368.227 39.6523C366.247 40.9674 363.962 41.625 361.371 41.625ZM361.371 38.4414C363.454 38.4414 365.219 37.8815 366.664 36.7617C368.109 35.6419 369.203 34.151 369.945 32.2891C370.701 30.4271 371.078 28.3763 371.078 26.1367C371.078 23.8971 370.701 21.8398 369.945 19.9648C369.203 18.0898 368.109 16.5859 366.664 15.4531C365.219 14.3203 363.454 13.7539 361.371 13.7539C359.301 13.7539 357.536 14.3203 356.078 15.4531C354.633 16.5859 353.533 18.0898 352.777 19.9648C352.035 21.8398 351.664 23.8971 351.664 26.1367C351.664 28.3763 352.035 30.4271 352.777 32.2891C353.533 34.151 354.633 35.6419 356.078 36.7617C357.523 37.8815 359.288 38.4414 361.371 38.4414ZM385.683 22.25V41H382.206V11H385.585V15.707H385.897C386.601 14.1706 387.694 12.9401 389.179 12.0156C390.676 11.0781 392.525 10.6094 394.726 10.6094C396.744 10.6094 398.515 11.0326 400.038 11.8789C401.575 12.7122 402.766 13.9427 403.612 15.5703C404.472 17.1979 404.901 19.1966 404.901 21.5664V41H401.425V21.7812C401.425 19.3203 400.735 17.3737 399.354 15.9414C397.987 14.5091 396.151 13.793 393.847 13.793C392.271 13.793 390.871 14.1315 389.647 14.8086C388.424 15.4857 387.453 16.4622 386.737 17.7383C386.034 19.0013 385.683 20.5052 385.683 22.25ZM420.092 29.5352V28.4805C420.105 26.4232 420.333 24.75 420.775 23.4609C421.218 22.1719 421.869 21.0846 422.729 20.1992C423.601 19.3008 424.682 18.4414 425.971 17.6211C426.934 16.9961 427.742 16.3385 428.393 15.6484C429.057 14.9453 429.558 14.1771 429.896 13.3437C430.248 12.4974 430.424 11.5794 430.424 10.5898C430.424 9.18359 430.092 7.95312 429.428 6.89844C428.777 5.84375 427.891 5.02995 426.771 4.45703C425.652 3.87109 424.408 3.57812 423.041 3.57812C421.739 3.57812 420.521 3.86458 419.389 4.4375C418.269 4.99739 417.351 5.83073 416.635 6.9375C415.932 8.03125 415.548 9.38542 415.482 11H411.791C411.856 8.85156 412.39 6.98958 413.393 5.41406C414.395 3.83854 415.736 2.62109 417.416 1.76172C419.096 0.889322 420.971 0.453124 423.041 0.453124C425.202 0.453124 427.104 0.902343 428.744 1.80078C430.385 2.6862 431.667 3.90364 432.592 5.45313C433.516 6.98958 433.979 8.7539 433.979 10.7461C433.979 12.0612 433.77 13.2591 433.354 14.3398C432.937 15.4206 432.312 16.4167 431.479 17.3281C430.658 18.2396 429.63 19.099 428.393 19.9062C427.221 20.6875 426.29 21.4622 425.6 22.2305C424.91 22.9987 424.415 23.8776 424.115 24.8672C423.816 25.8437 423.653 27.0482 423.627 28.4805V29.5352H420.092ZM421.967 41.293C421.199 41.293 420.535 41.0195 419.975 40.4727C419.428 39.9128 419.154 39.2487 419.154 38.4805C419.154 37.6992 419.428 37.0352 419.975 36.4883C420.535 35.9414 421.199 35.668 421.967 35.668C422.735 35.668 423.393 35.9414 423.939 36.4883C424.499 37.0352 424.779 37.6992 424.779 38.4805C424.779 38.9883 424.649 39.457 424.389 39.8867C424.141 40.3164 423.803 40.6615 423.373 40.9219C422.956 41.1693 422.488 41.293 421.967 41.293Z" fill="white"/>
</svg>
