<svg width="76" height="67" viewBox="0 0 76 67" fill="none" xmlns="http://www.w3.org/2000/svg">
<path d="M38 61.4166C33.6722 61.4166 29.582 60.6838 25.7292 59.2182C21.8764 57.7526 18.5118 55.7519 15.6354 53.2161C12.759 50.6804 10.4896 47.7142 8.82709 44.3177C7.16459 40.9212 6.33334 37.3153 6.33334 33.5C6.33334 29.6382 7.16459 26.0206 8.82709 22.6474C10.4896 19.2741 12.759 16.3196 15.6354 13.7838C18.5118 11.2481 21.8764 9.24738 25.7292 7.78175C29.582 6.31613 33.6722 5.58331 38 5.58331C42.3806 5.58331 46.484 6.31613 50.3104 7.78175C54.1368 9.24738 57.4882 11.2481 60.3646 13.7838C63.241 16.3196 65.5104 19.2741 67.1729 22.6474C68.8354 26.0206 69.6667 29.6382 69.6667 33.5C69.6667 37.3153 68.8354 40.9212 67.1729 44.3177C65.5104 47.7142 63.241 50.6804 60.3646 53.2161C57.4882 55.7519 54.1368 57.7526 50.3104 59.2182C46.484 60.6838 42.3806 61.4166 38 61.4166ZM38 55.6937C39.3722 54.0187 40.5597 52.2739 41.5625 50.4594C42.5653 48.6448 43.3833 46.7139 44.0167 44.6666H31.9833C32.6167 46.7139 33.4347 48.6448 34.4375 50.4594C35.4403 52.2739 36.6278 54.0187 38 55.6937ZM29.7667 54.5771C28.8167 53.0417 27.9854 51.4481 27.2729 49.7963C26.5604 48.1446 25.9667 46.4347 25.4917 44.6666H16.15C17.6806 46.993 19.5938 49.017 21.8896 50.7385C24.1854 52.4601 26.8111 53.7396 29.7667 54.5771ZM46.2333 54.5771C49.1889 53.7396 51.8146 52.4601 54.1104 50.7385C56.4063 49.017 58.3195 46.993 59.85 44.6666H50.5083C50.0333 46.4347 49.4396 48.1446 48.7271 49.7963C48.0146 51.4481 47.1833 53.0417 46.2333 54.5771ZM13.4583 39.0833H24.225C24.0667 38.1528 23.9479 37.2338 23.8688 36.3265C23.7896 35.4193 23.75 34.4771 23.75 33.5C23.75 32.5229 23.7896 31.5807 23.8688 30.6734C23.9479 29.7661 24.0667 28.8472 24.225 27.9166H13.4583C13.1945 28.8472 12.9965 29.7661 12.8646 30.6734C12.7326 31.5807 12.6667 32.5229 12.6667 33.5C12.6667 34.4771 12.7326 35.4193 12.8646 36.3265C12.9965 37.2338 13.1945 38.1528 13.4583 39.0833ZM30.5583 39.0833H45.4417C45.6 38.1528 45.7188 37.2338 45.7979 36.3265C45.8771 35.4193 45.9167 34.4771 45.9167 33.5C45.9167 32.5229 45.8771 31.5807 45.7979 30.6734C45.7188 29.7661 45.6 28.8472 45.4417 27.9166H30.5583C30.4 28.8472 30.2813 29.7661 30.2021 30.6734C30.1229 31.5807 30.0833 32.5229 30.0833 33.5C30.0833 34.4771 30.1229 35.4193 30.2021 36.3265C30.2813 37.2338 30.4 38.1528 30.5583 39.0833ZM51.775 39.0833H62.5417C62.8056 38.1528 63.0035 37.2338 63.1354 36.3265C63.2674 35.4193 63.3333 34.4771 63.3333 33.5C63.3333 32.5229 63.2674 31.5807 63.1354 30.6734C63.0035 29.7661 62.8056 28.8472 62.5417 27.9166H51.775C51.9333 28.8472 52.0521 29.7661 52.1313 30.6734C52.2104 31.5807 52.25 32.5229 52.25 33.5C52.25 34.4771 52.2104 35.4193 52.1313 36.3265C52.0521 37.2338 51.9333 38.1528 51.775 39.0833ZM50.5083 22.3333H59.85C58.3195 20.0069 56.4063 17.983 54.1104 16.2614C51.8146 14.5399 49.1889 13.2604 46.2333 12.4229C47.1833 13.9583 48.0146 15.5519 48.7271 17.2036C49.4396 18.8554 50.0333 20.5653 50.5083 22.3333ZM31.9833 22.3333H44.0167C43.3833 20.2861 42.5653 18.3552 41.5625 16.5406C40.5597 14.726 39.3722 12.9812 38 11.3062C36.6278 12.9812 35.4403 14.726 34.4375 16.5406C33.4347 18.3552 32.6167 20.2861 31.9833 22.3333ZM16.15 22.3333H25.4917C25.9667 20.5653 26.5604 18.8554 27.2729 17.2036C27.9854 15.5519 28.8167 13.9583 29.7667 12.4229C26.8111 13.2604 24.1854 14.5399 21.8896 16.2614C19.5938 17.983 17.6806 20.0069 16.15 22.3333Z" fill="#1D1B20"/>
</svg>
