<svg width="61" height="61" viewBox="0 0 61 61" fill="none" xmlns="http://www.w3.org/2000/svg">
<path d="M22.875 41.9375C21.0958 41.9375 19.592 41.3232 18.3635 40.0948C17.1351 38.8663 16.5208 37.3625 16.5208 35.5833C16.5208 33.8041 17.1351 32.3003 18.3635 31.0719C19.592 29.8434 21.0958 29.2291 22.875 29.2291C24.6542 29.2291 26.158 29.8434 27.3865 31.0719C28.6149 32.3003 29.2292 33.8041 29.2292 35.5833C29.2292 37.3625 28.6149 38.8663 27.3865 40.0948C26.158 41.3232 24.6542 41.9375 22.875 41.9375ZM12.7083 55.9166C11.3104 55.9166 10.1137 55.4189 9.11823 54.4234C8.12274 53.4279 7.625 52.2312 7.625 50.8333V15.25C7.625 13.8521 8.12274 12.6554 9.11823 11.6599C10.1137 10.6644 11.3104 10.1666 12.7083 10.1666H15.25V5.08331H20.3333V10.1666H40.6667V5.08331H45.75V10.1666H48.2917C49.6896 10.1666 50.8863 10.6644 51.8818 11.6599C52.8773 12.6554 53.375 13.8521 53.375 15.25V50.8333C53.375 52.2312 52.8773 53.4279 51.8818 54.4234C50.8863 55.4189 49.6896 55.9166 48.2917 55.9166H12.7083ZM12.7083 50.8333H48.2917V25.4166H12.7083V50.8333Z" fill="#FDF7BD"/>
</svg>
