<svg width="535" height="518" viewBox="0 0 535 518" fill="none" xmlns="http://www.w3.org/2000/svg">
<g clip-path="url(#clip0_5_8)">
<path d="M353.073 106.418C341.526 66.2876 299.623 43.1122 259.478 54.6543C219.333 66.1965 196.15 108.085 207.696 148.216C217.06 180.761 246.391 202.151 278.557 202.919L291.906 208.532L272.988 278.75L370.543 297.123L410.19 195.109C410.19 195.109 352.64 196.187 337.948 176.354C353.819 157.702 360.351 131.715 353.073 106.418Z" fill="#ED9DA0"/>
<path d="M1.52295 458.165L153.358 518L300.818 496.23L145.459 450.552L1.52295 458.165Z" fill="#090814"/>
<path d="M144.618 433.495L289.897 361.005L320.868 408.059L164.655 473.411C161.242 484.253 152.744 494.375 140.561 500.487C119.243 511.18 94.7851 505.552 85.9323 487.916C77.0795 470.28 87.1842 447.314 108.502 436.621C120.686 430.51 133.883 429.75 144.618 433.495Z" fill="#ED9DA0"/>
<path d="M391.151 193.586C391.151 193.586 376.975 267.08 327.473 265.557C277.971 264.034 287.11 229.015 287.11 229.015L240.353 255.279C240.353 255.279 220.092 283.828 220.092 319.609L205.623 388.887L185.06 410.203L245.986 458.165L277.21 414.01L308.434 508.411L535 518L530.811 323.416C530.811 323.416 518.626 229.776 466.84 210.744C415.053 191.711 391.151 193.586 391.151 193.586Z" fill="#AA0DFF"/>
<path d="M265.131 75.9621C265.131 75.9621 235.441 102.815 205.043 98.5754C174.646 94.3354 168.991 83.7354 168.991 79.4954C168.991 79.4954 168.991 80.9087 177.474 83.7354L181.008 53.3487C181.008 53.3487 185.25 61.3187 200.802 64.0471C200.802 64.0471 187.371 58.4372 200.802 47.413C200.802 47.413 207.871 53.3487 214.233 53.3487C214.233 53.3487 249.579 5.29539 319.564 35.6821V23.0559L325.926 39.2154L334.135 38.5018L342.185 37.8021C342.185 37.8021 359.858 58.2954 358.444 72.4287C357.03 86.5621 383.848 157.551 337.567 179.296C337.567 179.296 348.547 116.242 329.461 131.082C310.374 145.922 298.356 122.602 298.356 122.602L265.131 75.9621Z" fill="#090814"/>
<path opacity="0.5" d="M17.3248 386.709C13.0254 386.709 8.97434 385.081 5.85445 382.083C2.57019 378.928 0.761475 374.683 0.761475 370.129V151.839C0.761475 146.954 2.89966 142.343 6.62866 139.186C10.3562 136.03 15.2543 134.679 20.078 135.486L190.528 163.937C198.613 165.287 204.439 172.214 204.381 180.409L203.068 363.536C203.004 372.407 196.008 379.632 187.141 379.984L18.0038 386.695C17.777 386.704 17.5509 386.709 17.3248 386.709Z" fill="#EDA5FF"/>
<path d="M17.3249 387.47C12.8351 387.47 8.57357 385.752 5.3265 382.632C1.89201 379.332 0 374.892 0 370.129V151.839C0 146.73 2.23635 141.906 6.13641 138.605C10.0357 135.303 15.1622 133.893 20.2038 134.735L190.653 163.186C199.11 164.598 205.204 171.843 205.143 180.414L203.83 363.542C203.764 372.565 196.842 379.96 187.931 380.698L187.931 380.714L18.0344 387.456C17.7972 387.465 17.5606 387.47 17.3249 387.47ZM17.3346 136.019C13.6204 136.019 10.003 137.327 7.12109 139.767C3.56315 142.778 1.52313 147.178 1.52313 151.839V370.129C1.52313 374.474 3.24855 378.524 6.38258 381.534C9.50099 384.531 13.6554 386.109 17.9741 385.935L187.11 379.223C195.571 378.887 202.246 371.994 202.307 363.531L203.62 180.403C203.675 172.585 198.116 165.975 190.402 164.688L19.9524 136.236C19.0801 136.091 18.2047 136.019 17.3346 136.019Z" fill="#090814"/>
<path d="M76.402 273.415H76.3611L25.2261 273.184C19.9249 273.16 15.6121 268.829 15.6121 263.529V199.317C15.6121 196.581 16.7797 193.963 18.816 192.135C20.8478 190.309 23.5788 189.429 26.2993 189.717L77.4313 195.201C82.3502 195.728 86.0592 199.855 86.0592 204.8V263.76C86.0592 266.348 85.0492 268.778 83.2144 270.603C81.3923 272.416 78.973 273.415 76.402 273.415ZM25.2781 191.186C23.2775 191.186 21.3312 191.922 19.8341 193.267C18.1184 194.807 17.1352 197.012 17.1352 199.317V263.529C17.1352 267.993 20.7682 271.641 25.2335 271.661L76.3648 271.892L76.402 272.654V271.892C78.5677 271.892 80.6055 271.051 82.1405 269.524C83.6852 267.986 84.536 265.939 84.536 263.76V204.8C84.536 200.635 81.4117 197.158 77.2692 196.714L26.1379 191.231C25.8508 191.201 25.5637 191.186 25.2781 191.186Z" fill="#090814"/>
<path d="M176.925 273.17H99.5227C94.1969 273.17 89.8647 268.839 89.8647 263.515V209.693C89.8647 207.006 90.9982 204.419 92.9742 202.597C94.9473 200.776 97.6202 199.859 100.299 200.069L177.701 206.31C182.682 206.711 186.584 210.938 186.584 215.933V263.515C186.584 268.839 182.251 273.17 176.925 273.17ZM99.5316 201.561C97.4945 201.561 95.511 202.328 94.0065 203.716C92.3428 205.251 91.3879 207.43 91.3879 209.693V263.515C91.3879 267.999 95.0373 271.647 99.5227 271.647H176.925C181.411 271.647 185.061 267.999 185.061 263.515V215.933C185.061 211.726 181.774 208.165 177.579 207.827L100.177 201.587C99.9614 201.57 99.7458 201.561 99.5316 201.561Z" fill="#090814"/>
<path d="M101.288 211.505V216.845L141.651 218.357V213.845L101.288 211.505Z" fill="#090814"/>
<path d="M101.288 224.346V229.596L170.591 232.06V228.203L101.288 224.346Z" fill="#090814"/>
<path d="M101.288 234.097V239.16L139.366 240.434V236.247L101.288 234.097Z" fill="#090814"/>
<path d="M24.6527 333.586C22.2624 333.586 20.0074 332.661 18.3043 330.981C16.5685 329.269 15.6121 326.983 15.6121 324.545V292.063C15.6121 287.077 19.669 283.022 24.6557 283.022H65.2083C70.1957 283.022 74.2527 287.077 74.2527 292.063V323.997C74.2527 328.915 70.2507 332.97 65.331 333.037L24.6527 333.586ZM24.6557 284.544C20.5087 284.544 17.1352 287.917 17.1352 292.063V324.545C17.1352 326.573 17.9302 328.473 19.3738 329.897C20.7906 331.294 22.6647 332.063 24.6527 332.063L24.7583 332.062L65.3102 331.514C69.4014 331.459 72.7295 328.087 72.7295 323.997V292.063C72.7295 287.917 69.3553 284.544 65.2083 284.544L24.6557 284.544Z" fill="#090814"/>
<path d="M90.9483 331.476C88.5699 331.476 86.3231 330.559 84.6223 328.892C82.873 327.178 81.9092 324.885 81.9092 322.436V292.063C81.9092 287.077 85.9662 283.022 90.9535 283.022H124.61C129.598 283.022 133.655 287.077 133.655 292.063V321.763C133.655 326.65 129.678 330.704 124.79 330.803L90.9483 331.476ZM90.9535 284.544C86.8066 284.544 83.4323 287.917 83.4323 292.063V322.436C83.4323 324.473 84.2333 326.38 85.6887 327.805C87.1033 329.191 88.9708 329.954 90.9483 329.954L91.1038 329.952L124.761 329.28C128.825 329.199 132.132 325.827 132.132 321.763V292.063C132.132 287.917 128.757 284.544 124.61 284.544H90.9535Z" fill="#090814"/>
<path d="M148.16 329.157C145.79 329.157 143.549 328.244 141.85 326.586C140.091 324.87 139.122 322.572 139.122 320.116V292.063C139.122 287.077 143.179 283.022 148.166 283.022H177.228C182.171 283.022 186.228 287.041 186.272 291.982L186.514 319.318C186.558 324.226 182.6 328.316 177.692 328.437L148.16 329.157ZM148.166 284.544C144.019 284.544 140.645 287.917 140.645 292.063V320.116C140.645 322.158 141.45 324.069 142.913 325.496C144.327 326.875 146.19 327.634 148.16 327.634L148.353 327.631L177.655 326.915C181.736 326.815 185.027 323.413 184.991 319.332L184.749 291.996C184.712 287.887 181.339 284.544 177.228 284.544L148.166 284.544Z" fill="#090814"/>
<path d="M26.2739 297.151V300.841H58.8806L59.4709 297.151H26.2739Z" fill="#090814"/>
<path d="M60.711 261.845L42.9652 239.671L23.7661 258.863L22.6892 257.786L43.0916 237.391L61.9009 260.894L60.711 261.845Z" fill="#090814"/>
<path d="M72.473 260.353L61.1499 243.042L52.6716 250.521L51.6631 249.379L61.4623 240.736L73.7478 259.519L72.473 260.353Z" fill="#090814"/>
<path opacity="0.5" d="M407.513 114.912C403.681 114.912 399.949 113.574 396.958 111.07C393.212 107.935 391.064 103.336 391.064 98.4522V40.668C391.064 33.1022 396.192 26.5368 403.535 24.7019L497.339 1.25893C502.242 0.0329713 507.355 1.09685 511.362 4.17476C515.37 7.25303 517.714 11.916 517.793 16.9677L518.798 81.2825C518.926 89.3943 513.218 96.3159 505.229 97.7407L410.419 114.654C409.451 114.826 408.478 114.912 407.513 114.912Z" fill="white"/>
<path d="M407.513 115.673C403.487 115.673 399.565 114.245 396.47 111.654C392.55 108.374 390.303 103.562 390.303 98.4522V40.668C390.303 32.752 395.668 25.8829 403.351 23.9633L497.155 0.520317C502.283 -0.76103 507.632 0.349695 511.826 3.57108C516.019 6.7921 518.472 11.6706 518.554 16.9559L519.56 81.2706C519.693 89.7575 513.723 96.9995 505.363 98.4901L410.553 115.403C409.55 115.582 408.528 115.673 407.513 115.673ZM501.362 1.5225C500.085 1.5225 498.797 1.679 497.524 1.99756L403.719 25.4405C396.717 27.1903 391.826 33.452 391.826 40.668V98.4522C391.826 103.11 393.875 107.497 397.447 110.487C400.981 113.445 405.745 114.715 410.286 113.904L505.095 96.9913C512.716 95.6323 518.158 89.0308 518.037 81.2944L517.031 16.9797C516.956 12.1617 514.721 7.71436 510.898 4.77845C508.116 2.64139 504.776 1.5225 501.362 1.5225Z" fill="#090814"/>
<path d="M420.384 41.7356V47.7809L481.31 34.8839L483.594 28.0322L420.384 41.7356Z" fill="#090814"/>
<path d="M420.384 56.2002V62.2455L481.31 49.3485L483.594 42.4968L420.384 56.2002Z" fill="#090814"/>
<path d="M420.384 70.6649V76.7102L481.31 63.8132L483.594 56.9615L420.384 70.6649Z" fill="#090814"/>
<path d="M420.384 85.1295V91.1748L481.31 78.2778L483.594 71.4261L420.384 85.1295Z" fill="#090814"/>
<path d="M261.14 451.57L423.475 448.191L431.328 503.967L262.164 496.218C254.439 504.558 242.426 510.072 228.798 510.385C204.953 510.932 185.256 495.383 184.803 475.657C184.351 455.93 203.313 439.495 227.158 438.948C240.786 438.636 253.04 443.594 261.14 451.57Z" fill="#ED9DA0"/>
<path d="M422.669 327.983C422.669 327.983 417.338 361.48 433.331 372.9C433.331 372.9 428 414.01 440.947 426.952C440.947 426.952 417.155 427.915 421.816 440.376C421.816 440.376 386.875 434.565 391.445 449.03C391.445 449.03 423.78 487.825 415.99 512.963L521.673 507.65L533.468 446.82" fill="#AA0DFF"/>
</g>
<defs>
<clipPath id="clip0_5_8">
<rect width="535" height="518" fill="white"/>
</clipPath>
</defs>
</svg>
